<svg xmlns="http://www.w3.org/2000/svg" width="40" height="40" viewBox="0 0 40 40"><defs><path id="a" d="M0 0h24v24H0z"/></defs><path d="M2 0h36c1.108 0 2 .892 2 2v36c0 1.108-.892 2-2 2H2c-1.108 0-2-.892-2-2V2C0 .892.892 0 2 0z" fill="#fff"/><path d="M20 6.24c-7.794 0-14.107 6.314-14.107 14.108 0 6.242 4.038 11.515 9.646 13.384.705.124.97-.3.97-.67 0-.335-.018-1.446-.018-2.627-3.545.652-4.462-.864-4.744-1.658-.158-.406-.846-1.658-1.446-1.993-.493-.264-1.199-.917-.017-.934 1.11-.018 1.904 1.023 2.169 1.446 1.27 2.133 3.297 1.534 4.108 1.164.124-.917.494-1.535.9-1.887-3.14-.353-6.419-1.57-6.419-6.966 0-1.534.547-2.803 1.446-3.79-.141-.354-.635-1.8.141-3.74 0 0 1.182-.37 3.88 1.447a13.09 13.09 0 0 1 3.526-.476c1.2 0 2.398.158 3.527.476 2.698-1.834 3.88-1.446 3.88-1.446.775 1.94.282 3.385.14 3.738.9.988 1.447 2.24 1.447 3.791 0 5.414-3.298 6.613-6.437 6.966.512.44.952 1.287.952 2.61 0 1.886-.017 3.403-.017 3.879 0 .37.264.811.97.67 5.572-1.87 9.61-7.16 9.61-13.384 0-7.794-6.313-14.107-14.107-14.107z" fill="#6e5494" fill-rule="evenodd"/></svg>