<?xml version="1.0" encoding="UTF-8" standalone="no"?>
<!-- Created with Inkscape (http://www.inkscape.org/) -->

<svg
   xmlns:dc="http://purl.org/dc/elements/1.1/"
   xmlns:cc="http://creativecommons.org/ns#"
   xmlns:rdf="http://www.w3.org/1999/02/22-rdf-syntax-ns#"
   xmlns:svg="http://www.w3.org/2000/svg"
   xmlns="http://www.w3.org/2000/svg"
   xmlns:xlink="http://www.w3.org/1999/xlink"
   xmlns:sodipodi="http://sodipodi.sourceforge.net/DTD/sodipodi-0.dtd"
   xmlns:inkscape="http://www.inkscape.org/namespaces/inkscape"
   width="40"
   height="40"
   viewBox="0 0 40 40"
   id="svg4362"
   version="1.1"
   inkscape:version="0.91 r13725"
   sodipodi:docname="github_login_btn.svg">
  <defs
     id="defs4364">
    <clipPath
       id="b-4">
      <use
         height="100%"
         width="100%"
         y="0"
         x="0"
         style="overflow:visible"
         overflow="visible"
         xlink:href="#a"
         id="use44" />
    </clipPath>
    <clipPath
       id="b-73">
      <use
         height="100%"
         width="100%"
         y="0"
         x="0"
         style="overflow:visible"
         overflow="visible"
         xlink:href="#a"
         id="use8-9" />
    </clipPath>
    <clipPath
       id="b-4-5">
      <use
         height="100%"
         width="100%"
         y="0"
         x="0"
         style="overflow:visible"
         overflow="visible"
         xlink:href="#a"
         id="use44-6" />
    </clipPath>
    <clipPath
       id="b-73-2">
      <use
         height="100%"
         width="100%"
         y="0"
         x="0"
         style="overflow:visible"
         overflow="visible"
         xlink:href="#a"
         id="use8-9-4" />
    </clipPath>
    <clipPath
       id="clipPath6072">
      <use
         height="100%"
         width="100%"
         y="0"
         x="0"
         style="overflow:visible"
         overflow="visible"
         xlink:href="#a"
         id="use6074" />
    </clipPath>
    <clipPath
       id="clipPath6076">
      <use
         height="100%"
         width="100%"
         y="0"
         x="0"
         style="overflow:visible"
         overflow="visible"
         xlink:href="#a"
         id="use6078" />
    </clipPath>
    <path
       id="a"
       d="M 0,0 24,0 24,24 0,24 Z"
       inkscape:connector-curvature="0" />
  </defs>
  <sodipodi:namedview
     id="base"
     pagecolor="#ffffff"
     bordercolor="#666666"
     borderopacity="1.0"
     inkscape:pageopacity="1"
     inkscape:pageshadow="2"
     inkscape:zoom="5.6"
     inkscape:cx="28.378378"
     inkscape:cy="39.62013"
     inkscape:document-units="px"
     inkscape:current-layer="g4877"
     showgrid="false"
     inkscape:showpageshadow="false"
     borderlayer="true"
     units="px"
     inkscape:window-width="1703"
     inkscape:window-height="1277"
     inkscape:window-x="938"
     inkscape:window-y="28"
     inkscape:window-maximized="0"
     fit-margin-top="0"
     fit-margin-left="0"
     fit-margin-right="0"
     fit-margin-bottom="0" />
  <metadata
     id="metadata4367">
    <rdf:RDF>
      <cc:Work
         rdf:about="">
        <dc:format>image/svg+xml</dc:format>
        <dc:type
           rdf:resource="http://purl.org/dc/dcmitype/StillImage" />
        <dc:title></dc:title>
      </cc:Work>
    </rdf:RDF>
  </metadata>
  <g
     inkscape:label="Layer 1"
     inkscape:groupmode="layer"
     id="layer1"
     transform="translate(-581.47935,-853.07644)">
    <g
       transform="translate(174.44627,129.7103)"
       id="g4896">
      <g
         style="font-style:normal;font-variant:normal;font-weight:normal;font-stretch:normal;font-size:20px;line-height:125%;font-family:Lato;-inkscape-font-specification:'Lato, Normal';text-align:start;letter-spacing:0.25px;word-spacing:0px;writing-mode:lr-tb;text-anchor:start;fill:#ffffff;fill-opacity:1;stroke:none;stroke-width:1px;stroke-linecap:butt;stroke-linejoin:miter;stroke-opacity:1"
         id="text4771" />
      <g
         id="g4877"
         transform="translate(130,267.85714)">
        <path
           style="opacity:1;fill:#ffffff;fill-opacity:1;stroke:none;stroke-width:7;stroke-linecap:round;stroke-linejoin:round;stroke-miterlimit:4;stroke-dasharray:none;stroke-dashoffset:0;stroke-opacity:1"
           d="m 279.03308,455.509 36,0 c 1.108,0 2,0.892 2,2 l 0,36 c 0,1.108 -0.892,2 -2,2 l -36,0 c -1.108,0 -2,-0.892 -2,-2 l 0,-36 c 0,-1.108 0.892,-2 2,-2 z"
           id="rect4829-7"
           inkscape:connector-curvature="0" />
        <g
           style="fill:#6e5494;fill-opacity:1;fill-rule:evenodd;stroke:none;stroke-width:1"
           id="g-zzz-github-mark-5"
           transform="matrix(1.7633887,0,0,1.7633887,282.92597,461.7499)">
          <g
             style="fill:#6e5494;fill-opacity:1"
             id="mark-github-4">
            <path
               inkscape:connector-curvature="0"
               d="M 8,0 C 3.58,0 0,3.58 0,8 c 0,3.54 2.29,6.53 5.47,7.59 0.4,0.07 0.55,-0.17 0.55,-0.38 0,-0.19 -0.01,-0.82 -0.01,-1.49 C 4,14.09 3.48,13.23 3.32,12.78 3.23,12.55 2.84,11.84 2.5,11.65 2.22,11.5 1.82,11.13 2.49,11.12 3.12,11.11 3.57,11.7 3.72,11.94 4.44,13.15 5.59,12.81 6.05,12.6 6.12,12.08 6.33,11.73 6.56,11.53 4.78,11.33 2.92,10.64 2.92,7.58 2.92,6.71 3.23,5.99 3.74,5.43 3.66,5.23 3.38,4.41 3.82,3.31 c 0,0 0.67,-0.21 2.2,0.82 0.64,-0.18 1.32,-0.27 2,-0.27 0.68,0 1.36,0.09 2,0.27 1.53,-1.04 2.2,-0.82 2.2,-0.82 0.44,1.1 0.16,1.92 0.08,2.12 0.51,0.56 0.82,1.27 0.82,2.15 0,3.07 -1.87,3.75 -3.65,3.95 0.29,0.25 0.54,0.73 0.54,1.48 0,1.07 -0.01,1.93 -0.01,2.2 0,0.21 0.15,0.46 0.55,0.38 C 13.71,14.53 16,11.53 16,8 16,3.58 12.42,0 8,0 l 0,0 z"
               id="Shape-19-1"
               style="fill:#6e5494;fill-opacity:1" />
          </g>
        </g>
      </g>
    </g>
  </g>
</svg>
